<svg xmlns="http://www.w3.org/2000/svg" viewBox="0 0 790.54 819.03"><defs><style>.cls-1{fill:#fff;}</style></defs><title>ElsieWorksAsset 1</title><g id="Layer_2" data-name="Layer 2"><g id="Layer_1-2" data-name="Layer 1"><path class="cls-1" d="M473.66,9.53l78.57,136.26L781,278,701.78,415.11l-.14,263.69-158.58-.09L316.26,809.5,238,673.76,9.52,541.69,88.76,404.61l.14-263,155.55.08.22-.12v0l229-132M248.71,146.08H247.3l-50.71,29.28L273,307.83,413,65.35l131.6,76L472,15.54,248.71,144.33v1.75M388.56,429.14l-138.4-79.91h0l-.8-.47,22-38.09-1.35.78-77.22-133.9-79.87,46.11L271.72,498.72l134.37-77.57.42.72.22-.13,2.2,3.81-138.4,79.91-.42-.73-.22.13-21.35-37v1.05l-155.41-.08v92.47H411.06V406.52h.53v-.6H416V565.73h-.53v.6h-44l1.35.78L295.2,701.4l80.08,46.24L534.37,472.11,399.78,394.4l2.2-3.81,0,0,.15-.25,138.4,79.91-22,38.08,1.35-.77L597.56,642.2l79.74-46L518.4,320.94,383.81,398.65l-2.2-3.82.35-.2-.33-.56L520,314.17l22,38v-.75l155.41.08V259.07H379.48V413.21H379v1.26h-4.4V254.66h.53V253.4h44l-1.35-.78,77.78-134.55L415.4,71.83,256.17,347.62,390,424.85h0l.81.47-2.2,3.81m313.78-23.79L775,279.64,550.35,149.78l-.67.39L549,149l-48.08-27.8-1.63-.94L422.35,253.4h280v152M246.6,464.53,106.27,221.45,190.17,173h0l5.29-3,41.38-23.89L93.3,146l-.14,259.45.15.09-.15.25,0,56.77v1.89l153.47.08M697.24,674.39l.14-260.12-.15-.08.15-.26,0-56.1v-1.89l-153.3-.08L683.66,597.58l-.35.2.33.56-131.6,76,145.2.07m-458-5,1-.56.71,1.22,50.44,29.12,76.8-132.87H88.2v-152L15.54,540.09,239.27,669.42m137.67,84.26-.05,0-.14.26-83.9-48.44h0l-5.29-3.06L245.63,678.2l72.25,125.29,224-129.15v0h0l50.24-29,1.63-1L516.94,511.2l-140,242.48M468.16,0,241.56,130.67,88.9,130.59l-11,11-.13,260.07L0,536.19l4,15L229.93,681.8,306.74,815l15,4L546,689.72l155.63.08,11-11,.14-260.73,77.76-134.53-4-15L560.29,137.74,483.19,4l-15-4ZM421.34,57.47,468,30.56l46.56,80.74L421.34,57.47ZM254.2,153.86,396.59,71.75,273,285.82,211.61,179.38,252.8,155.6l-1-1.66,1.53-1.53.83,1.45Zm17,189.73L419.43,86.86l61,35.23L410.92,242.4H375.08l-11,11v.73l-.53.53V396.91L271.2,343.59ZM441.41,242.4l61.91-107.1,40.19,23.23,1-1.7,1.55.42-1.19,2.06L688.59,242.4ZM104.26,209.9l0-52.9,91.53.05L190,160.43l-5.29,3h0L104.26,209.9Zm23.68,17.79,60.81-35.11,69,119.65-17.92,31,4,15,.8.46h0l123.75,71.45L275.75,483.7l-147.81-256ZM104.16,405.46,104.25,240l123.3,213.57-123.41-.06,0-47.66h-2.73l-.09-.34Zm609.18-41.12V256.7l46.64,27-46.64,80.68ZM390.48,376.26V270.06H686.41v70.47l-138.49-.08-18.36-31.79-15-4L390.48,376.26Zm31.68,12.94L514.37,336,662.28,592.14l-60.69,35L532.18,506.8l17.92-31-4-15L422.16,389.2ZM686.29,580.14,563.16,366.87l123.24.06,0,47h2.73l.09.34h-2.82l-.09,165.87ZM390.48,407.49l5-2.88,4.59,2.65v4.67l-5.24,3-4.34-2.5v-5Zm36,158.76.53-.52V422.81l92.35,53.32L371.26,732.61l-61-35.23,69.39-120h35.84l11-11v-.08ZM276,515l124-71.61v107H104.13V479.85l138.66.08,17.57,30.43.35.1.3.5,15,4ZM30.56,536.07,77.2,455.38V563l-46.64-27ZM393.34,747.28,516.93,533.21l61.8,107.16-42.34,24.41,1.46,2.54,0,0-1.47-2.56-143,82.47ZM243.71,661.74l1.07-1.85L102,577.33H349.13L287.37,684.18l-40.92-23.63-1,1.66-1.78-.47Zm349.34,1.6,93.23-53.82,0,53.87-93.2,0ZM321.91,788.46l-46.26-80.23,6.41,3.7,5.28,3.06h0l80.94,46.73-46.38,26.74Z"/></g></g></svg>